<mxfile host="app.diagrams.net" modified="2021-08-05T22:53:19.073Z" agent="5.0 (Macintosh; Intel Mac OS X 10_14_6) AppleWebKit/537.36 (KHTML, like Gecko) Chrome/92.0.4515.107 Safari/537.36" etag="C_Pzxn9LZUmv1CmK_uAb" version="14.9.4" type="github">
  <diagram id="DnRKNAlyavGe1cbxTtQc" name="Page-1">
    <mxGraphModel dx="1283" dy="651" grid="0" gridSize="10" guides="1" tooltips="1" connect="1" arrows="1" fold="1" page="1" pageScale="1" pageWidth="1100" pageHeight="850" background="#000066" math="0" shadow="0">
      <root>
        <mxCell id="0" />
        <mxCell id="1" parent="0" />
        <mxCell id="ltZTwApmdDU9IRVBgoVc-1" value="" style="rounded=1;whiteSpace=wrap;html=1;" vertex="1" parent="1">
          <mxGeometry x="279" y="80" width="761" height="595" as="geometry" />
        </mxCell>
        <mxCell id="ltZTwApmdDU9IRVBgoVc-5" value="" style="rounded=1;whiteSpace=wrap;html=1;strokeColor=#6c8ebf;fillColor=none;" vertex="1" parent="1">
          <mxGeometry x="306" y="100" width="515" height="131" as="geometry" />
        </mxCell>
        <mxCell id="ltZTwApmdDU9IRVBgoVc-2" value="" style="rounded=1;whiteSpace=wrap;html=1;" vertex="1" parent="1">
          <mxGeometry x="280" y="695" width="767" height="101" as="geometry" />
        </mxCell>
        <mxCell id="ltZTwApmdDU9IRVBgoVc-3" value="UI Components" style="rounded=1;whiteSpace=wrap;html=1;strokeColor=#6c8ebf;fillColor=none;" vertex="1" parent="1">
          <mxGeometry x="500" y="117" width="305" height="40" as="geometry" />
        </mxCell>
        <mxCell id="ltZTwApmdDU9IRVBgoVc-4" value="UI Process Components" style="rounded=1;whiteSpace=wrap;html=1;strokeColor=#6c8ebf;fillColor=none;" vertex="1" parent="1">
          <mxGeometry x="499" y="173" width="306" height="40" as="geometry" />
        </mxCell>
        <mxCell id="ltZTwApmdDU9IRVBgoVc-8" value="" style="shape=image;html=1;verticalAlign=top;verticalLabelPosition=bottom;labelBackgroundColor=#ffffff;imageAspect=0;aspect=fixed;image=https://cdn4.iconfinder.com/data/icons/evil-icons-user-interface/64/avatar-128.png;fillColor=none;" vertex="1" parent="1">
          <mxGeometry x="57" y="109" width="128" height="128" as="geometry" />
        </mxCell>
        <mxCell id="ltZTwApmdDU9IRVBgoVc-11" value="" style="rounded=1;whiteSpace=wrap;html=1;strokeColor=#6c8ebf;fillColor=none;" vertex="1" parent="1">
          <mxGeometry x="306" y="241" width="515" height="165" as="geometry" />
        </mxCell>
        <mxCell id="ltZTwApmdDU9IRVBgoVc-12" value="" style="rounded=1;whiteSpace=wrap;html=1;strokeColor=#6c8ebf;fillColor=none;" vertex="1" parent="1">
          <mxGeometry x="306" y="420" width="515" height="116" as="geometry" />
        </mxCell>
        <mxCell id="ltZTwApmdDU9IRVBgoVc-13" value="Application Facade" style="rounded=1;whiteSpace=wrap;html=1;strokeColor=#6c8ebf;fillColor=none;" vertex="1" parent="1">
          <mxGeometry x="499.5" y="253" width="305" height="60" as="geometry" />
        </mxCell>
        <mxCell id="ltZTwApmdDU9IRVBgoVc-14" value="Workflow" style="rounded=1;whiteSpace=wrap;html=1;strokeColor=#6c8ebf;fillColor=none;" vertex="1" parent="1">
          <mxGeometry x="500" y="331" width="98" height="46" as="geometry" />
        </mxCell>
        <mxCell id="ltZTwApmdDU9IRVBgoVc-15" value="Components" style="rounded=1;whiteSpace=wrap;html=1;strokeColor=#6c8ebf;fillColor=none;" vertex="1" parent="1">
          <mxGeometry x="607" y="331" width="98" height="46" as="geometry" />
        </mxCell>
        <mxCell id="ltZTwApmdDU9IRVBgoVc-16" value="Domain&lt;br&gt;Entities" style="rounded=1;whiteSpace=wrap;html=1;strokeColor=#6c8ebf;fillColor=none;" vertex="1" parent="1">
          <mxGeometry x="717" y="331" width="88" height="46" as="geometry" />
        </mxCell>
        <mxCell id="ltZTwApmdDU9IRVBgoVc-17" value="Data Access" style="rounded=1;whiteSpace=wrap;html=1;strokeColor=#6c8ebf;fillColor=none;" vertex="1" parent="1">
          <mxGeometry x="499" y="455" width="98" height="46" as="geometry" />
        </mxCell>
        <mxCell id="ltZTwApmdDU9IRVBgoVc-18" value="Data Utilities" style="rounded=1;whiteSpace=wrap;html=1;strokeColor=#6c8ebf;fillColor=none;" vertex="1" parent="1">
          <mxGeometry x="606" y="455" width="98" height="46" as="geometry" />
        </mxCell>
        <mxCell id="ltZTwApmdDU9IRVBgoVc-19" value="" style="rounded=1;whiteSpace=wrap;html=1;strokeColor=#6c8ebf;fillColor=none;" vertex="1" parent="1">
          <mxGeometry x="716" y="455" width="88" height="46" as="geometry" />
        </mxCell>
      </root>
    </mxGraphModel>
  </diagram>
</mxfile>
